<svg width="18" height="22" viewBox="0 0 18 22" fill="none" xmlns="http://www.w3.org/2000/svg">
<path fill-rule="evenodd" clip-rule="evenodd" d="M9.20329 0.478271C11.9153 0.478271 14.1164 2.6796 14.1164 5.38906L15.0969 5.39138C16.1835 5.39138 17.1192 6.27035 17.1867 7.35079L17.9244 19.1539C17.9921 20.2361 17.1698 21.1133 16.0865 21.1133H2.3201C1.23739 21.1133 0.41462 20.2344 0.482148 19.1539L1.21984 7.35079C1.28748 6.26864 2.22128 5.39138 3.30964 5.39138H4.29017C4.29017 2.67813 6.49304 0.478271 9.20329 0.478271ZM12.1511 5.39149C12.1511 3.76503 10.8299 2.44362 9.20328 2.44362C7.57781 2.44362 6.25541 3.76421 6.25541 5.38917L12.1511 5.39149ZM4.29018 7.35657H3.30965C3.2591 7.35657 3.18417 7.42687 3.18126 7.47332L2.45892 19.148L15.9548 19.1455L15.2253 7.47332C15.2225 7.42864 15.1457 7.35657 15.0969 7.35657H14.1164V9.32181C14.1164 9.8645 13.6765 10.3044 13.1338 10.3044C12.5911 10.3044 12.1512 9.8645 12.1512 9.32181V7.35657L6.25542 7.35657L6.25542 9.32181C6.25542 9.8645 5.81549 10.3044 5.2728 10.3044C4.73011 10.3044 4.29018 9.8645 4.29018 9.32181V7.35657Z" fill="white"/>
</svg>
