<svg width="24" height="8" viewBox="0 0 24 8" fill="none" xmlns="http://www.w3.org/2000/svg">
<g id="Logo">
<path id="Shape" fill-rule="evenodd" clip-rule="evenodd" d="M17.361 0.334359L17.0832 1.98113C16.2502 1.51036 14.3544 1.39897 14.3542 2.26605C14.3542 2.61051 14.7831 2.84741 15.3001 3.13294C16.0842 3.56597 17.0708 4.11084 17.0708 5.31241C17.0708 7.23241 15.0668 7.93785 13.7384 7.93785C12.4104 7.93785 11.5412 7.50482 11.5412 7.50482L11.8306 5.78297C12.6276 6.43918 15.0426 6.62564 15.0426 5.58503C15.0426 5.14775 14.5672 4.88988 14.0159 4.59085C13.2553 4.17826 12.3502 3.68731 12.3502 2.53867C12.3502 0.433026 14.6442 0 15.6102 0C16.5038 0 17.361 0.334359 17.361 0.334359ZM23.856 7.80554H22.0686L21.8406 6.66646H19.366L18.9602 7.80554H16.931L19.8342 0.708308C19.8342 0.708308 20.0102 0.136821 20.7328 0.136821H22.2976L23.856 7.80554ZM6.7576 0.137026L4.9018 5.41149L4.6822 4.27569L4.6824 4.2761L4.0274 0.827487C4.0274 0.827487 3.9482 0.137026 3.104 0.137026H0.036L0 0.266872C0 0.266872 0.9382 0.467077 2.0362 1.14338L3.7274 7.80574H5.7556L8.8526 0.137026H6.7576ZM10.3418 7.80554H8.3952L9.6118 0.137026H11.5586L10.3418 7.80554ZM19.9266 5.09292L20.9494 2.22318L21.5248 5.09292H19.9266Z" fill="#2566AF"/>
<path id="Path" d="M4.6824 4.27592L4.0274 0.827302C4.0274 0.827302 3.9482 0.136841 3.104 0.136841H0.036L0 0.266687C0 0.266687 1.4746 0.580123 2.889 1.75448C4.2414 2.87694 4.6824 4.27592 4.6824 4.27592Z" fill="#E6A540"/>
</g>
</svg>
