<svg width="12" height="15" viewBox="0 0 12 15" fill="none" xmlns="http://www.w3.org/2000/svg">
<g id="Logo">
<path id="Path" d="M10.099 1.05579C9.46156 0.316817 8.30919 0 6.83496 0H2.55634C2.25502 1.13472e-05 1.99842 0.222835 1.9512 0.525501L0.169662 12.0167C0.134251 12.2433 0.306777 12.4485 0.532603 12.4485H3.17407L3.83746 8.16914L3.81687 8.30314C3.86413 8.00065 4.11851 7.77755 4.41973 7.77755H5.67495C8.14082 7.77755 10.0716 6.75893 10.6357 3.81228C10.6524 3.72513 10.6669 3.64031 10.6794 3.55744C10.6083 3.5191 10.6083 3.5191 10.6794 3.55744C10.8474 2.46833 10.6783 1.72698 10.099 1.05579Z" fill="#27346A"/>
<path id="Path_2" d="M4.84818 3.1651C4.9204 3.13013 4.99938 3.11201 5.07936 3.11206H8.43372C8.83093 3.11206 9.20142 3.13835 9.53997 3.19377C9.63471 3.20913 9.72896 3.22747 9.82258 3.24876C9.95527 3.27854 10.0864 3.31499 10.2156 3.35797C10.382 3.4145 10.537 3.48034 10.6795 3.55744C10.8474 2.46791 10.6783 1.72698 10.099 1.05579C9.46119 0.316817 8.30919 0 6.83496 0H2.55598C2.25471 0 1.99841 0.223061 1.9512 0.525501L0.169662 12.0163C0.134251 12.2432 0.306778 12.4481 0.532237 12.4481H3.17407L4.55039 3.57177C4.57786 3.39466 4.68921 3.24261 4.84818 3.1651Z" fill="#27346A"/>
<path id="Path_3" d="M10.6358 3.81221C10.0718 6.75844 8.14106 7.77748 5.67514 7.77748H4.41955C4.11833 7.77748 3.86391 8.00059 3.8171 8.30307L2.99181 13.6239C2.96097 13.8222 3.11176 14.0019 3.30904 14.0019H5.53573C5.79924 14.0019 6.02357 13.8069 6.06475 13.5422L6.08644 13.4268L6.50611 10.7218L6.53315 10.5723C6.57432 10.3076 6.79863 10.1127 7.06212 10.1126H7.39537C9.55238 10.1126 11.2414 9.22138 11.7349 6.64384C11.9409 5.56669 11.8343 4.66737 11.2894 4.03569C11.1241 3.84437 10.9188 3.68635 10.6796 3.55737C10.6667 3.64066 10.6526 3.72506 10.6358 3.81221Z" fill="#2790C3"/>
<path id="Path_4" d="M10.0893 3.31802C10.0014 3.2919 9.9126 3.26878 9.82314 3.24869C9.72947 3.22774 9.63523 3.20953 9.54053 3.19406C9.20161 3.13828 8.8314 3.11194 8.43382 3.11194H5.07988C4.99983 3.11176 4.92079 3.13003 4.8487 3.1654C4.68953 3.24268 4.57808 3.39484 4.55086 3.57207L3.83797 8.16906L3.81738 8.30307C3.86428 8.00058 4.11865 7.77747 4.41992 7.77747H5.67551C8.14138 7.77747 10.0722 6.75885 10.6362 3.8122C10.653 3.72506 10.6671 3.6406 10.68 3.55736C10.5372 3.48068 10.3826 3.41443 10.2161 3.35827C10.1741 3.3441 10.1318 3.33068 10.0894 3.31802" fill="#1F264F"/>
</g>
</svg>
