<svg width="19" height="12" viewBox="0 0 19 12" fill="none" xmlns="http://www.w3.org/2000/svg">
<g id="Logo">
<path id="Fill 1" fill-rule="evenodd" clip-rule="evenodd" d="M7.08971 5.85255C7.08971 4.01564 7.93841 2.38017 9.25983 1.32178C8.28542 0.54133 7.05453 0.0740967 5.71493 0.0740967C2.55869 0.0740967 0 2.66122 0 5.85255C0 9.04388 2.55869 11.631 5.71493 11.631C7.05453 11.631 8.28542 11.1638 9.25983 10.3833C7.93841 9.32493 7.08971 7.68947 7.08971 5.85255Z" fill="#EB001B"/>
<path id="Fill 4" fill-rule="evenodd" clip-rule="evenodd" d="M7.08984 5.85255C7.08984 7.68946 7.93854 9.32493 9.25996 10.3833C10.5813 9.32493 11.43 7.68946 11.43 5.85255C11.43 4.01563 10.5813 2.38017 9.25996 1.32178C7.93854 2.38017 7.08984 4.01563 7.08984 5.85255Z" fill="#FF5E00"/>
<path id="Fill 8" fill-rule="evenodd" clip-rule="evenodd" d="M12.8046 0.0740967C11.465 0.0740967 10.2341 0.54133 9.25977 1.32178C10.5811 2.38025 11.4298 4.01564 11.4298 5.85255C11.4298 7.68947 10.5811 9.32493 9.25977 10.3833C10.2341 11.1638 11.465 11.631 12.8046 11.631C15.9608 11.631 18.5195 9.04388 18.5195 5.85255C18.5195 2.66122 15.9608 0.0740967 12.8046 0.0740967Z" fill="#F79E1C"/>
</g>
</svg>
